<?xml version="1.0" encoding="utf-8"?><!-- Uploaded to: SVG Repo, www.svgrepo.com, Generator: SVG Repo Mixer Tools -->
<svg fill="#000000" width="800px" height="800px" viewBox="0 0 24 24" id="protected-lock-file" data-name="Line Color" xmlns="http://www.w3.org/2000/svg" class="icon line-color"><path id="secondary" d="M11,20V16a1,1,0,0,0-1-1H4a1,1,0,0,0-1,1v4a1,1,0,0,0,1,1h6A1,1,0,0,0,11,20ZM7,11H7a2,2,0,0,0-2,2v2H9V13A2,2,0,0,0,7,11Z" style="fill: none; stroke: rgb(44, 169, 188); stroke-linecap: round; stroke-linejoin: round; stroke-width: 2;"></path><path id="primary" d="M7,7V4A1,1,0,0,1,8,3h9l4,4V20a1,1,0,0,1-1,1H15" style="fill: none; stroke: rgb(0, 0, 0); stroke-linecap: round; stroke-linejoin: round; stroke-width: 2;"></path></svg>